# xmcd CD database file
#
# Track frame offsets:
#	150
#	21255
#	43949
#	72965
#	89665
#	119792
#	127120
#	152639
#	188768
#	209611
#	235849
#	259901
#	300272
#	305354
#
# Disc length: 4201 seconds
#
# Revision: 0
# Processed by: cddbd v1.5.1PL2 Copyright (c) Steve Scherf et al.
# Submitted via: CDex 1.51
#
DISCID=cc10670e
DTITLE=Trey Gunn - Untune The Sky
DYEAR=1900
DGENRE=プログレッシブ ロック
TTITLE0=Sozzle
TTITLE1=The Glovei (Live)
TTITLE2=Killing For London
TTITLE3=The Third Star (Alternate Mix)
TTITLE4=Take This Wish (Alternate Mix)
TTITLE5=August, 1997
TTITLE6=Rune Song
TTITLE7=Puttin' On The White Shirt
TTITLE8=3X's AS Right
TTITLE9=Bleief Encounter
TTITLE10=Arrakis
TTITLE11=The Cruelest Month
TTITLE12=(Secret Track)
TTITLE13=Hootenanny At The Pink Pussycat Cafe
EXTD=
EXTT0=
EXTT1=
EXTT2=
EXTT3=
EXTT4=
EXTT5=
EXTT6=
EXTT7=
EXTT8=
EXTT9=
EXTT10=
EXTT11=
EXTT12=
EXTT13=
PLAYORDER=
